<svg width="130" height="40" viewBox="0 0 130 40" fill="none" xmlns="http://www.w3.org/2000/svg">
<g clip-path="url(#clip0_1_9)">
<path d="M17.3806 40C25.0599 40 30.8171 35.9346 30.8171 28.9102C30.8171 21.478 25.3984 19.0406 19.3556 17.5326L15.1201 16.4863C10.9994 15.44 8.40039 14.2228 8.40039 10.796C8.40039 7.83391 10.9964 6.09204 14.6109 6.09204C18.8229 6.09204 21.7515 7.80093 24.1121 12.5438L29.8988 9.6867C27.1909 4.35017 21.9546 0 15.0112 0C8.06779 0 1.74248 3.94843 1.74248 11.2637C1.74248 18.5789 7.44379 21.1333 12.8066 22.2935L16.3622 23.106C21.2747 24.2093 24.3211 25.2556 24.3211 29.0271C24.3211 32.5678 21.2718 33.9619 17.4895 33.9619C12.8596 33.9619 8.34447 31.2907 5.89558 25.5734L0 28.4965C2.93454 35.0562 9.48649 40 17.3806 40Z" fill="#073742"/>
<path d="M43.5707 40.0002C47.3823 40.0002 49.9107 38.1444 51.4354 35.5061C51.8386 34.8076 52.8864 35.0924 52.8864 35.9019V39.4186H59.2647V11.147H52.8864V26.9977C52.8864 31.6417 51.3058 34.7177 46.6759 34.7177C42.4404 34.7177 41.3131 32.3372 41.3131 28.8535V11.147H34.9907V30.8292C34.9907 36.6934 38.2638 40.0032 43.5707 40.0032V40.0002Z" fill="#073742"/>
<path d="M71.1148 39.4216V23.8617C71.1148 19.1578 74.0494 15.4432 77.2135 15.4432C79.0767 15.4432 79.8096 16.7204 79.8096 18.2883C79.8096 19.8563 79.4681 21.4243 79.0472 22.7015H85.2577C85.5403 21.5682 86.1054 19.7994 86.1054 17.0711C86.1054 12.8918 83.2563 10.5684 79.8125 10.5684C76.3688 10.5684 74.0258 12.5291 72.5512 15.2423C72.1686 15.9469 71.1178 15.674 71.1178 14.8676V11.15H64.7954V39.4246H71.1178L71.1148 39.4216Z" fill="#073742"/>
<path d="M95.6065 39.4214V16.3364H103.624V11.1468H95.6065C95.6065 11.1468 94.7795 5.17763 99.1975 5.17763C102.936 5.17763 103.624 8.79029 103.624 8.79029L108.769 6.24494C107.583 3.60666 104.516 0 99.0267 0C94.7088 0 89.2842 2.53036 89.2842 11.6354V39.4214H95.6065Z" fill="#073742"/>
<path d="M117.635 39.9998C123.733 39.9998 127.457 37.1547 129.547 33.9048L125.653 29.7255C124.637 32.1059 122.3 34.6603 117.694 34.6603C113.679 34.6603 110.468 31.9321 110.129 26.8803H129.776C129.888 26.2987 130.003 25.0815 130.003 24.0352C130.003 16.1983 125.429 10.5649 117.187 10.5649C109.452 10.5649 104.089 16.4291 104.089 25.3124C104.089 34.1956 109.452 39.9998 117.638 39.9998H117.635ZM117.184 15.7905C121.361 15.7905 124.299 18.5518 124.299 22.1854H110.185C110.185 18.6447 113.29 15.7905 117.184 15.7905Z" fill="#073742"/>
</g>
<defs>
<clipPath id="clip0_1_9">
<rect width="130" height="40" fill="white"/>
</clipPath>
</defs>
</svg>
